# xmcd CD database file
#
# Track frame offsets:
#	225
#	11295
#	23882
#	36331
#	49487
#	60843
#	72486
#	84588
#	100623
#	116620
#	127366
#	138551
#	151758
#	165896
#	180952
#
# Disc length: 2617 seconds
#
# Revision: 1
# Processed by: cddbd v1.5.1PL0 Copyright (c) Steve Scherf et al.
# Submitted via: CDex 1.51
#
DISCID=bd0a360f
DTITLE=Various Artist - Fetzige Volksmusik
DYEAR=2000
DGENRE=Volksmusik
TTITLE0=Steirermen san very good
TTITLE1=Guten Morgen 
TTITLE2=Partona Bavariae
TTITLE3=Frau Meier
TTITLE4=Rehbraune Augen
TTITLE5=Zillertaler Teufelsgeiger-Polka
TTITLE6=Auf der hohen Alm
TTITLE7=Kufsteiner-Lied 
TTITLE8=Herzilein
TTITLE9=Trompetenecho
TTITLE10=Drei weiﬂe Birken
TTITLE11=Die Sterne am Himmel
TTITLE12=Der Zauberer der Berge im Alpenland
TTITLE13=Zillertaler Hochzeitrsmarsch
TTITLE14=Sierre Madre del sur
EXTD=YEAR: 2000
EXTT0=
EXTT1=
EXTT2=
EXTT3=
EXTT4=
EXTT5=
EXTT6=
EXTT7=
EXTT8=
EXTT9=
EXTT10=
EXTT11=
EXTT12=
EXTT13=
EXTT14=
PLAYORDER=
